# xmcd
#
# Track frame offsets:
#  150
#  13043
#  26280
#  36907
#  49772
#  57280
#  71334
#  86947
#  99781
#
# Disc length: 1489 seconds
#
# Revision: 0
# Processed by: cddbd v1.5.1PL0 Copyright (c) Steve Scherf et al.
# Submitted via: AltoMP3_Maker 3.0
#
DISCID=6905cf09
DTITLE=Traci Reynolds - Traci Reynolds
DYEAR=1900
DGENRE=
TTITLE0=Something to Talk About
TTITLE1=I Will Survive
TTITLE2=Crazy
TTITLE3=Jody Can't Believe She's Not a Movie Star
TTITLE4=Nine to Five
TTITLE5=The Rose
TTITLE6=All I Ask of You
TTITLE7=I Am the Woman You Call
TTITLE8=Black Velvet
EXTD=
EXTT0=
EXTT1=
EXTT2=
EXTT3=
EXTT4=
EXTT5=
EXTT6=
EXTT7=
EXTT8=
PLAYORDER=
